<svg width="11" height="11" viewBox="0 0 11 11" fill="none" xmlns="http://www.w3.org/2000/svg">
<path d="M9.89967 1.47475H7.83717V0.689035C7.83717 0.635017 7.79297 0.59082 7.73895 0.59082H7.05145C6.99743 0.59082 6.95324 0.635017 6.95324 0.689035V1.47475H3.81038V0.689035C3.81038 0.635017 3.76618 0.59082 3.71217 0.59082H3.02467C2.97065 0.59082 2.92645 0.635017 2.92645 0.689035V1.47475H0.863951C0.646652 1.47475 0.471094 1.65031 0.471094 1.86761V10.0194C0.471094 10.2367 0.646652 10.4122 0.863951 10.4122H9.89967C10.117 10.4122 10.2925 10.2367 10.2925 10.0194V1.86761C10.2925 1.65031 10.117 1.47475 9.89967 1.47475ZM9.4086 9.52832H1.35502V4.86314H9.4086V9.52832ZM1.35502 4.02832V2.35868H2.92645V2.94796C2.92645 3.00198 2.97065 3.04618 3.02467 3.04618H3.71217C3.76618 3.04618 3.81038 3.00198 3.81038 2.94796V2.35868H6.95324V2.94796C6.95324 3.00198 6.99743 3.04618 7.05145 3.04618H7.73895C7.79297 3.04618 7.83717 3.00198 7.83717 2.94796V2.35868H9.4086V4.02832H1.35502Z" fill="white"/>
</svg>
