<svg width="32" height="32" viewBox="0 0 32 32" fill="none" xmlns="http://www.w3.org/2000/svg">
<path d="M15.9859 0.682619C7.2918 0.679103 0.25 7.71738 0.25 16.4045C0.25 23.274 4.65508 29.1135 10.7898 31.258C11.616 31.4654 11.4895 30.8783 11.4895 30.4775V27.7529C6.71875 28.3119 6.52539 25.1549 6.20547 24.6275C5.55859 23.5236 4.0293 23.2424 4.48633 22.715C5.57266 22.1561 6.68008 22.8557 7.96328 24.7506C8.89141 26.1252 10.702 25.8932 11.6195 25.6646C11.8199 24.8385 12.2488 24.1002 12.8395 23.5271C7.89648 22.6412 5.83633 19.6248 5.83633 16.0389C5.83633 14.2986 6.40938 12.699 7.53438 11.4088C6.81719 9.28184 7.60117 7.46074 7.70664 7.19004C9.74922 7.00723 11.8727 8.65254 12.0379 8.78262C13.198 8.46973 14.5234 8.30449 16.007 8.30449C17.4977 8.30449 18.8266 8.47676 19.9973 8.79317C20.3945 8.49082 22.3633 7.07754 24.2617 7.24981C24.3637 7.52051 25.1301 9.29942 24.4551 11.3982C25.5941 12.692 26.1742 14.3057 26.1742 16.0494C26.1742 19.6424 24.1 22.6623 19.143 23.5342C19.5676 23.9517 19.9047 24.4497 20.1347 24.999C20.3646 25.5483 20.4829 26.1379 20.4824 26.7334V30.6885C20.5105 31.0049 20.4824 31.3178 21.0098 31.3178C27.2359 29.2189 31.7184 23.3373 31.7184 16.408C31.7184 7.71738 24.673 0.682619 15.9859 0.682619Z" fill="white" />
</svg>
