<svg width="306" height="35" viewBox="0 0 306 35" fill="none" xmlns="http://www.w3.org/2000/svg">
<path d="M8.824 33.927C6.932 32.761 5.348 31.342 4.072 29.67C2.818 27.998 1.872 26.183 1.234 24.225C0.618 22.245 0.31 20.243 0.31 18.219C0.31 16.173 0.618 14.171 1.234 12.213C1.872 10.255 2.818 8.44 4.072 6.768C5.348 5.096 6.932 3.677 8.824 2.511C8.934 2.423 9.066 2.379 9.22 2.379C9.418 2.379 9.594 2.445 9.748 2.577C9.902 2.709 9.979 2.863 9.979 3.039C9.979 3.171 9.913 3.303 9.781 3.435C7.625 5.371 5.997 7.637 4.897 10.233C3.819 12.829 3.28 15.491 3.28 18.219C3.28 20.947 3.819 23.609 4.897 26.205C5.997 28.779 7.625 31.045 9.781 33.003C9.913 33.135 9.979 33.267 9.979 33.399C9.979 33.553 9.902 33.696 9.748 33.828C9.616 33.982 9.451 34.059 9.253 34.059C9.077 34.059 8.934 34.015 8.824 33.927ZM25.8427 0.959998H28.6477C28.6477 3.424 28.1857 5.745 27.2617 7.923C26.3377 10.079 25.0507 11.982 23.4007 13.632C21.7727 15.26 19.8697 16.547 17.6917 17.493C15.5357 18.417 13.2257 18.879 10.7617 18.879V16.074C12.8517 16.074 14.8097 15.689 16.6357 14.919C18.4617 14.127 20.0567 13.038 21.4207 11.652C22.8067 10.266 23.8847 8.66 24.6547 6.834C25.4467 5.008 25.8427 3.05 25.8427 0.959998ZM49.4377 12.642C48.6897 12.642 48.0077 12.455 47.3917 12.081C46.7757 11.707 46.2807 11.212 45.9067 10.596C45.5327 9.98 45.3457 9.298 45.3457 8.55C45.3457 7.78 45.5327 7.087 45.9067 6.471C46.2807 5.855 46.7757 5.36 47.3917 4.986C48.0077 4.612 48.6897 4.425 49.4377 4.425C50.1857 4.425 50.8677 4.612 51.4837 4.986C52.0997 5.36 52.5947 5.855 52.9687 6.471C53.3427 7.087 53.5297 7.78 53.5297 8.55C53.5297 9.298 53.3427 9.98 52.9687 10.596C52.5947 11.212 52.0997 11.707 51.4837 12.081C50.8677 12.455 50.1857 12.642 49.4377 12.642ZM49.4377 10.761C50.0537 10.761 50.5707 10.552 50.9887 10.134C51.4287 9.694 51.6487 9.166 51.6487 8.55C51.6487 7.912 51.4287 7.384 50.9887 6.966C50.5707 6.526 50.0537 6.306 49.4377 6.306C48.8217 6.306 48.2937 6.526 47.8537 6.966C47.4357 7.384 47.2267 7.912 47.2267 8.55C47.2267 9.166 47.4357 9.694 47.8537 10.134C48.2937 10.552 48.8217 10.761 49.4377 10.761ZM81.9345 29.307H61.2765C60.8805 29.307 60.5285 29.164 60.2205 28.878C59.9125 28.57 59.7585 28.207 59.7585 27.789V7.131C59.7585 6.735 59.9015 6.383 60.1875 6.075C60.4955 5.767 60.8585 5.613 61.2765 5.613H81.9345C82.3305 5.613 82.6825 5.767 82.9905 6.075C83.2985 6.361 83.4525 6.713 83.4525 7.131V27.789C83.4525 28.185 83.2985 28.537 82.9905 28.845C82.7045 29.153 82.3525 29.307 81.9345 29.307ZM61.9695 7.527C61.7715 7.527 61.6725 7.626 61.6725 7.824V27.096C61.6725 27.294 61.7715 27.393 61.9695 27.393H81.2415C81.4395 27.393 81.5385 27.294 81.5385 27.096V7.824C81.5385 7.626 81.4395 7.527 81.2415 7.527H61.9695ZM93.7815 12.642C93.0335 12.642 92.3515 12.455 91.7355 12.081C91.1195 11.707 90.6245 11.212 90.2505 10.596C89.8765 9.98 89.6895 9.298 89.6895 8.55C89.6895 7.78 89.8765 7.087 90.2505 6.471C90.6245 5.855 91.1195 5.36 91.7355 4.986C92.3515 4.612 93.0335 4.425 93.7815 4.425C94.5295 4.425 95.2115 4.612 95.8275 4.986C96.4435 5.36 96.9385 5.855 97.3125 6.471C97.6865 7.087 97.8735 7.78 97.8735 8.55C97.8735 9.298 97.6865 9.98 97.3125 10.596C96.9385 11.212 96.4435 11.707 95.8275 12.081C95.2115 12.455 94.5295 12.642 93.7815 12.642ZM93.7815 10.761C94.3975 10.761 94.9145 10.552 95.3325 10.134C95.7725 9.694 95.9925 9.166 95.9925 8.55C95.9925 7.912 95.7725 7.384 95.3325 6.966C94.9145 6.526 94.3975 6.306 93.7815 6.306C93.1655 6.306 92.6375 6.526 92.1975 6.966C91.7795 7.384 91.5705 7.912 91.5705 8.55C91.5705 9.166 91.7795 9.694 92.1975 10.134C92.6375 10.552 93.1655 10.761 93.7815 10.761ZM101.264 33.3C101.154 33.388 101.022 33.432 100.868 33.432C100.67 33.432 100.494 33.355 100.34 33.201C100.186 33.069 100.109 32.926 100.109 32.772C100.109 32.64 100.175 32.508 100.307 32.376C102.485 30.418 104.113 28.152 105.191 25.578C106.269 22.982 106.808 20.32 106.808 17.592C106.808 14.864 106.269 12.202 105.191 9.606C104.113 7.01 102.485 4.744 100.307 2.808C100.175 2.676 100.109 2.544 100.109 2.412C100.109 2.236 100.175 2.082 100.307 1.95C100.461 1.818 100.637 1.752 100.835 1.752C101.011 1.752 101.154 1.796 101.264 1.884C103.156 3.05 104.729 4.469 105.983 6.141C107.259 7.813 108.205 9.628 108.821 11.586C109.459 13.544 109.778 15.546 109.778 17.592C109.778 19.616 109.459 21.618 108.821 23.598C108.205 25.556 107.259 27.371 105.983 29.043C104.729 30.715 103.156 32.134 101.264 33.3ZM147.53 0.959998H150.335C150.335 3.424 149.873 5.745 148.949 7.923C148.025 10.079 146.738 11.982 145.088 13.632C143.46 15.26 141.557 16.547 139.379 17.493C137.223 18.417 134.913 18.879 132.449 18.879V16.074C134.539 16.074 136.497 15.689 138.323 14.919C140.149 14.127 141.744 13.038 143.108 11.652C144.494 10.266 145.572 8.66 146.342 6.834C147.134 5.008 147.53 3.05 147.53 0.959998ZM167.165 33.102C167.033 33.234 166.901 33.3 166.769 33.3C166.615 33.3 166.461 33.223 166.307 33.069C166.175 32.937 166.109 32.772 166.109 32.574C166.109 32.398 166.153 32.255 166.241 32.145C167.407 30.253 168.826 28.68 170.498 27.426C172.17 26.15 173.985 25.204 175.943 24.588C177.923 23.95 179.925 23.631 181.949 23.631C183.995 23.631 185.997 23.95 187.955 24.588C189.913 25.204 191.728 26.15 193.4 27.426C195.072 28.68 196.491 30.253 197.657 32.145C197.745 32.255 197.789 32.387 197.789 32.541C197.789 32.739 197.723 32.915 197.591 33.069C197.459 33.223 197.305 33.3 197.129 33.3C196.997 33.3 196.865 33.234 196.733 33.102C194.797 30.924 192.531 29.296 189.935 28.218C187.339 27.14 184.677 26.601 181.949 26.601C179.221 26.601 176.559 27.14 173.963 28.218C171.389 29.296 169.123 30.924 167.165 33.102ZM206.501 19.077V15.843H221.582V0.761999H224.816V15.843H239.897V19.077H206.501ZM239.501 19.077V15.843H272.897V19.077H239.501ZM272.501 19.077V15.843H287.582V0.761999H290.816V15.843H305.897V19.077H272.501Z" fill="white"/>
</svg>
